<?xml version="1.0" encoding="UTF-8" standalone="no"?>
<svg width="1200" height="1200" viewBox="0 0 1200 1200" fill="none" xmlns="http://www.w3.org/2000/svg">
  <style>
    .sephirah {
      fill-opacity: 0.15;
      stroke-width: 2;
    }
    .path {
      stroke-width: 2;
      stroke-opacity: 0.2;
    }
  </style>
  
  <!-- Paths connecting the Sephiroth -->
  <path class="path" stroke="#8B5CF6" d="M600 200 L600 350" />
  <path class="path" stroke="#8B5CF6" d="M600 350 L600 500" />
  <path class="path" stroke="#8B5CF6" d="M600 500 L600 650" />
  <path class="path" stroke="#8B5CF6" d="M600 650 L600 800" />
  <path class="path" stroke="#8B5CF6" d="M600 800 L600 950" />
  
  <!-- Diagonal paths on left -->
  <path class="path" stroke="#8B5CF6" d="M600 350 L450 500" />
  <path class="path" stroke="#8B5CF6" d="M450 500 L450 650" />
  <path class="path" stroke="#8B5CF6" d="M450 650 L600 800" />
  <path class="path" stroke="#8B5CF6" d="M450 500 L300 650" />
  <path class="path" stroke="#8B5CF6" d="M300 650 L450 800" />
  <path class="path" stroke="#8B5CF6" d="M450 800 L600 950" />
  
  <!-- Diagonal paths on right -->
  <path class="path" stroke="#8B5CF6" d="M600 350 L750 500" />
  <path class="path" stroke="#8B5CF6" d="M750 500 L750 650" />
  <path class="path" stroke="#8B5CF6" d="M750 650 L600 800" />
  <path class="path" stroke="#8B5CF6" d="M750 500 L900 650" />
  <path class="path" stroke="#8B5CF6" d="M900 650 L750 800" />
  <path class="path" stroke="#8B5CF6" d="M750 800 L600 950" />
  
  <!-- Cross paths -->
  <path class="path" stroke="#8B5CF6" d="M450 500 L750 500" />
  <path class="path" stroke="#8B5CF6" d="M300 650 L900 650" />
  <path class="path" stroke="#8B5CF6" d="M450 800 L750 800" />
  
  <!-- Diagonal cross paths -->
  <path class="path" stroke="#8B5CF6" d="M450 650 L750 650" />
  <path class="path" stroke="#8B5CF6" d="M600 500 L300 650" />
  <path class="path" stroke="#8B5CF6" d="M600 500 L900 650" />
  <path class="path" stroke="#8B5CF6" d="M300 650 L600 800" />
  <path class="path" stroke="#8B5CF6" d="M900 650 L600 800" />
  
  <!-- Sephiroth circles -->
  <circle class="sephirah" cx="600" cy="200" r="40" fill="#F472B6" stroke="#F472B6" />
  <circle class="sephirah" cx="600" cy="350" r="40" fill="#C084FC" stroke="#C084FC" />
  <circle class="sephirah" cx="600" cy="500" r="40" fill="#60A5FA" stroke="#60A5FA" />
  <circle class="sephirah" cx="450" cy="500" r="40" fill="#34D399" stroke="#34D399" />
  <circle class="sephirah" cx="750" cy="500" r="40" fill="#F59E0B" stroke="#F59E0B" />
  <circle class="sephirah" cx="450" cy="650" r="40" fill="#F97316" stroke="#F97316" />
  <circle class="sephirah" cx="750" cy="650" r="40" fill="#10B981" stroke="#10B981" />
  <circle class="sephirah" cx="300" cy="650" r="40" fill="#EC4899" stroke="#EC4899" />
  <circle class="sephirah" cx="900" cy="650" r="40" fill="#8B5CF6" stroke="#8B5CF6" />
  <circle class="sephirah" cx="600" cy="950" r="40" fill="#6366F1" stroke="#6366F1" />
</svg> 